<?xml version="1.0" standalone="no"?>
<!DOCTYPE svg PUBLIC "-//W3C//DTD SVG 20010904//EN"
 "http://www.w3.org/TR/2001/REC-SVG-20010904/DTD/svg10.dtd">
<svg version="1.0" xmlns="http://www.w3.org/2000/svg"
 width="800.000000pt" height="800.000000pt" viewBox="0 0 800.000000 800.000000"
 preserveAspectRatio="xMidYMid meet">

<g transform="translate(0.000000,800.000000) scale(0.100000,-0.100000)"
fill="#000000" stroke="none">
<path d="M1700 6229 c-91 -41 -149 -121 -157 -218 -6 -75 25 -135 88 -171 43
-25 48 -25 307 -28 l262 -4 0 -26 c0 -15 9 -668 20 -1452 13 -905 24 -1439 30
-1463 16 -56 69 -103 132 -117 39 -8 460 -10 1573 -8 l1520 3 46 21 c96 45
158 136 159 232 0 66 -22 115 -68 150 l-35 27 -1446 5 -1446 5 -3 218 -2 217
1463 0 c1624 0 1519 -4 1624 67 58 39 88 75 125 148 98 193 820 1792 827 1831
23 123 -45 245 -158 283 -25 8 -551 11 -1977 11 l-1942 0 -4 93 c-4 106 -22
143 -88 177 -37 19 -60 20 -422 20 -364 0 -385 -1 -428 -21z m2805 -558 c109
-28 269 -109 360 -181 145 -116 253 -285 296 -465 28 -117 23 -293 -11 -400
-46 -144 -125 -271 -232 -370 -384 -360 -1006 -346 -1369 31 -155 162 -229
343 -229 565 0 397 295 737 720 830 117 26 349 21 465 -10z"/>
<path d="M3898 5095 c-88 -50 -50 -185 52 -185 104 0 155 90 92 161 -34 38
-100 49 -144 24z"/>
<path d="M4478 5095 c-57 -32 -66 -108 -19 -156 25 -24 38 -29 78 -29 98 1
147 92 85 161 -34 38 -100 49 -144 24z"/>
<path d="M3848 4686 c-80 -102 -113 -166 -113 -217 0 -32 7 -57 21 -76 26 -36
99 -73 144 -73 50 0 120 38 148 80 33 49 26 101 -26 187 -43 73 -108 153 -123
153 -5 0 -28 -24 -51 -54z"/>
<path d="M4212 4618 c-15 -15 -16 -65 -1 -74 6 -3 44 -10 85 -15 89 -10 179
-48 250 -105 65 -53 85 -59 114 -36 36 29 21 62 -52 117 -82 62 -124 82 -215
106 -86 22 -163 25 -181 7z"/>
<path d="M2392 2435 c-221 -62 -392 -278 -392 -494 0 -217 147 -363 365 -363
147 1 277 61 384 178 206 225 175 551 -64 660 -74 34 -208 43 -293 19z"/>
<path d="M5036 2439 c-181 -45 -359 -228 -397 -407 -17 -85 -7 -190 25 -256
35 -72 119 -148 194 -176 119 -45 285 -21 408 58 309 201 340 614 56 754 -57
28 -76 33 -156 35 -50 1 -109 -2 -130 -8z"/>
</g>
</svg>
