<?xml version="1.0" standalone="no"?>
<!DOCTYPE svg PUBLIC "-//W3C//DTD SVG 20010904//EN"
 "http://www.w3.org/TR/2001/REC-SVG-20010904/DTD/svg10.dtd">
<svg version="1.0" xmlns="http://www.w3.org/2000/svg"
 width="800.000000pt" height="800.000000pt" viewBox="0 0 800.000000 800.000000"
 preserveAspectRatio="xMidYMid meet">

<g transform="translate(0.000000,800.000000) scale(0.100000,-0.100000)"
fill="#000000" stroke="none">
<path d="M1705 6226 c-98 -45 -158 -131 -159 -226 0 -66 20 -108 71 -147 l36
-28 273 -3 272 -3 6 -82 c3 -45 12 -683 21 -1417 9 -734 18 -1363 21 -1397 6
-68 29 -111 77 -147 l28 -21 1552 -3 c1050 -2 1564 0 1588 7 118 35 206 171
185 287 -9 47 -68 111 -114 124 -24 6 -529 10 -1459 10 l-1423 0 -2 180 c-1
99 -2 199 -3 223 l0 42 1495 5 1495 5 47 23 c76 38 132 94 176 179 22 43 217
465 433 938 l394 860 0 80 c0 91 -13 123 -72 180 -72 70 73 65 -2075 65
l-1939 0 7 49 c15 111 -19 185 -101 222 -36 17 -73 19 -410 19 -367 0 -370 0
-420 -24z m2660 -526 c400 -46 715 -308 801 -668 24 -97 22 -285 -4 -383 -83
-313 -330 -546 -669 -631 -126 -32 -360 -32 -486 0 -340 85 -592 323 -673 637
-27 105 -25 295 5 400 107 386 457 640 896 654 22 0 81 -4 130 -9z"/>
<path d="M3940 5103 c-56 -18 -90 -56 -90 -102 0 -32 47 -80 87 -87 74 -14
145 57 119 120 -18 45 -79 81 -116 69z"/>
<path d="M4513 5103 c-54 -10 -96 -82 -74 -129 13 -29 67 -64 99 -64 36 0 80
30 97 67 14 29 14 35 0 63 -24 46 -74 72 -122 63z"/>
<path d="M3851 4678 c-111 -148 -132 -214 -88 -278 62 -93 204 -97 270 -8 40
55 41 78 2 154 -36 72 -118 184 -135 184 -5 0 -27 -24 -49 -52z"/>
<path d="M4222 4614 c-50 -35 -14 -68 93 -83 92 -13 176 -50 249 -111 54 -45
78 -50 100 -19 20 29 14 40 -54 93 -74 58 -167 102 -256 121 -88 19 -104 19
-132 -1z"/>
<path d="M2413 2436 c-244 -62 -429 -301 -410 -530 11 -132 85 -238 206 -295
50 -23 68 -26 161 -25 125 0 180 18 287 93 80 56 138 128 185 226 31 66 33 76
33 180 0 130 -16 175 -89 253 -86 92 -240 132 -373 98z"/>
<path d="M5080 2444 c-71 -14 -156 -50 -218 -94 -239 -168 -302 -480 -134
-659 153 -162 441 -143 626 43 93 92 139 181 156 299 32 216 -118 402 -333
412 -39 2 -83 1 -97 -1z"/>
</g>
</svg>
